<?xml version="1.0" standalone="no"?>
<!DOCTYPE svg PUBLIC "-//W3C//DTD SVG 20010904//EN"
 "http://www.w3.org/TR/2001/REC-SVG-20010904/DTD/svg10.dtd">
<svg version="1.0" xmlns="http://www.w3.org/2000/svg"
 width="837.000000pt" height="298.000000pt" viewBox="0 0 837.000000 298.000000"
 preserveAspectRatio="xMidYMid meet">

<g transform="translate(0.000000,298.000000) scale(0.100000,-0.100000)"
fill="#000000" stroke="none">
<path d="M1260 2955 c-233 -36 -488 -144 -655 -279 -248 -200 -389 -385 -497
-651 -60 -150 -99 -366 -98 -550 2 -204 72 -525 116 -525 21 0 109 83 191 180
71 84 143 265 178 450 38 202 97 423 122 461 14 21 65 72 112 112 47 39 127
114 176 166 50 52 160 166 245 253 137 138 160 158 188 158 39 0 61 -37 69
-116 3 -30 6 -54 7 -54 10 0 197 108 258 147 69 46 106 12 107 -99 2 -111 -65
-208 -200 -291 -39 -23 -89 -54 -112 -69 -23 -15 -49 -31 -57 -35 -17 -8 -106
-70 -132 -93 -66 -56 -124 -124 -151 -175 l-32 -60 2 -373 c2 -219 7 -380 13
-391 5 -10 19 -21 30 -24 31 -8 195 80 400 213 41 27 84 49 96 49 58 2 76
-173 29 -286 -26 -62 -101 -128 -215 -189 -30 -16 -66 -36 -80 -45 -14 -9 -79
-47 -145 -84 -66 -37 -136 -77 -155 -88 -19 -11 -51 -30 -71 -41 -20 -12 -76
-43 -124 -71 -47 -27 -119 -68 -158 -90 -40 -22 -84 -48 -97 -57 -14 -9 -37
-22 -53 -29 -15 -7 -26 -16 -25 -19 2 -4 28 -27 58 -51 179 -143 441 -254 675
-285 310 -42 605 2 865 129 66 32 221 123 230 136 3 3 19 15 35 26 49 31 234
216 267 267 17 26 37 49 44 52 8 3 14 10 14 17 0 6 8 23 19 37 60 85 145 276
186 417 41 140 57 407 35 586 -9 68 -33 179 -56 257 -3 10 -12 8 -35 -9 -36
-25 -80 -67 -94 -90 -5 -8 -19 -30 -31 -47 -23 -35 -51 -121 -82 -247 -32
-128 -68 -273 -92 -365 -13 -47 -28 -110 -35 -140 -37 -157 -106 -255 -227
-319 -24 -12 -68 -38 -98 -56 -30 -19 -72 -44 -94 -57 -21 -13 -46 -28 -55
-33 -9 -6 -38 -23 -66 -39 -27 -16 -57 -35 -65 -41 -8 -7 -40 -25 -70 -41 -30
-16 -61 -35 -69 -42 -7 -7 -29 -22 -50 -33 -49 -27 -109 -61 -151 -87 -19 -12
-53 -31 -75 -43 -22 -12 -42 -25 -45 -29 -15 -22 -75 -41 -107 -35 -28 5 -38
13 -50 43 -13 31 -14 46 -4 97 23 112 84 216 151 257 56 34 103 60 135 78 142
76 200 117 262 185 109 118 110 124 117 565 3 201 3 375 0 388 -10 37 -48 31
-174 -28 -34 -15 -88 -47 -139 -80 -92 -60 -98 -64 -135 -94 -40 -32 -80 -37
-103 -13 -24 24 -4 206 32 284 34 76 67 104 221 191 71 40 147 83 169 97 22
13 76 44 120 70 44 25 103 59 130 75 28 17 64 37 80 46 17 8 37 19 45 24 8 5
58 34 110 65 52 31 102 60 110 65 8 6 30 17 49 25 l35 15 -39 40 c-22 22 -57
52 -80 67 -22 15 -44 32 -50 37 -16 17 -95 67 -165 105 -155 83 -331 139 -499
160 -111 14 -335 12 -441 -4z"/>
<path d="M7673 1933 c-53 -3 -63 -7 -63 -22 0 -14 10 -21 35 -25 26 -5 39 -14
45 -32 13 -33 13 -685 1 -717 -6 -14 -23 -29 -40 -35 -17 -6 -31 -18 -31 -26
0 -14 20 -16 135 -16 123 0 135 2 135 18 0 10 -12 22 -28 28 -34 13 -42 44
-42 172 l0 82 31 0 c35 0 86 -49 172 -163 53 -71 56 -82 27 -97 -11 -6 -17
-16 -14 -25 9 -22 264 -22 264 0 0 8 -16 21 -35 31 -19 9 -59 44 -89 78 -77
86 -186 220 -185 226 1 15 214 177 249 190 26 9 40 20 40 32 0 16 -13 18 -150
18 -140 0 -150 -1 -150 -19 0 -12 9 -21 25 -25 34 -9 33 -52 -2 -97 -35 -45
-120 -99 -155 -99 l-28 0 0 265 0 265 -42 -2 c-24 -1 -71 -3 -105 -5z"/>
<path d="M3531 1895 c-109 -24 -174 -81 -189 -166 -23 -122 22 -188 185 -268
149 -75 181 -99 199 -154 36 -108 -29 -197 -145 -197 -23 0 -65 10 -93 22 -45
19 -54 28 -75 75 -22 51 -25 54 -56 51 l-32 -3 0 -84 0 -85 50 -14 c31 -9 100
-15 180 -16 115 -1 135 2 176 22 58 27 105 75 120 120 18 55 8 162 -20 200
-32 46 -112 102 -200 141 -127 56 -171 103 -171 183 0 43 33 96 68 109 15 6
59 9 98 7 62 -3 74 -7 102 -33 18 -17 35 -45 38 -62 6 -31 9 -33 45 -33 l39 0
0 84 c0 97 11 88 -130 106 -95 12 -111 11 -189 -5z"/>
<path d="M4691 1899 c-79 -13 -132 -41 -189 -97 -60 -60 -75 -86 -102 -183
-26 -97 -26 -211 1 -314 30 -115 78 -179 169 -223 51 -25 64 -27 190 -27 80 0
156 6 188 14 l52 13 0 89 0 89 -33 0 c-31 0 -36 -5 -62 -55 -24 -45 -37 -58
-76 -75 -26 -11 -65 -20 -86 -20 -43 0 -119 32 -140 58 -48 61 -83 190 -83
309 0 87 34 228 66 274 44 65 80 83 164 87 94 4 126 -13 160 -87 22 -46 28
-51 57 -51 l33 0 0 89 0 89 -27 6 c-45 10 -176 25 -203 25 -14 -1 -49 -5 -79
-10z"/>
<path d="M4057 1883 c-4 -3 -7 -33 -7 -65 l0 -58 65 0 65 0 0 65 0 65 -58 0
c-32 0 -62 -3 -65 -7z"/>
<path d="M6380 1876 c0 -9 11 -21 24 -26 14 -5 30 -18 35 -29 16 -29 15 -652
-1 -686 -6 -14 -22 -28 -35 -31 -14 -4 -23 -14 -23 -25 0 -18 10 -19 175 -19
177 0 287 14 363 46 19 7 60 41 92 74 78 79 110 172 110 315 0 181 -61 291
-200 358 l-65 31 -237 4 c-214 3 -238 2 -238 -12z m424 -64 c51 -20 109 -70
131 -112 46 -89 57 -241 26 -359 -23 -87 -60 -144 -115 -176 -46 -26 -161 -49
-221 -43 l-40 3 -3 345 c-1 190 0 351 3 359 8 20 155 8 219 -17z"/>
<path d="M7327 1883 c-4 -3 -7 -33 -7 -65 l0 -58 65 0 65 0 0 65 0 65 -58 0
c-32 0 -62 -3 -65 -7z"/>
<path d="M5349 1651 c-20 -4 -50 -17 -66 -29 -17 -12 -35 -22 -40 -22 -17 -1
-73 -88 -88 -136 -8 -27 -15 -80 -15 -117 0 -185 90 -287 261 -295 85 -4 137
13 221 77 l48 35 -21 22 -21 22 -44 -31 c-70 -49 -206 -55 -255 -11 -32 29
-55 83 -62 142 l-6 52 209 0 210 0 0 53 c0 77 -44 165 -103 206 -39 26 -58 32
-119 36 -40 2 -89 1 -109 -4z m153 -78 c26 -28 48 -87 48 -130 0 -23 -1 -23
-140 -23 -139 0 -140 0 -140 23 1 34 36 104 67 132 22 19 39 24 84 25 48 0 59
-4 81 -27z"/>
<path d="M6141 1653 c-33 -7 -114 -58 -129 -82 -22 -37 -33 -24 -26 29 l7 50
-107 0 c-97 0 -106 -2 -106 -19 0 -12 9 -21 28 -24 58 -13 57 -8 57 -246 0
-201 -2 -221 -19 -240 -11 -12 -25 -21 -33 -21 -7 0 -13 -9 -13 -20 0 -19 7
-20 135 -20 125 0 135 1 135 19 0 13 -9 20 -30 25 -20 4 -34 14 -40 31 -13 35
-13 315 1 351 16 45 63 77 116 78 38 1 48 -3 67 -26 17 -22 30 -28 59 -28 l38
0 -3 73 -3 72 -55 1 c-30 1 -66 0 -79 -3z"/>
<path d="M3980 1630 c0 -15 9 -22 31 -27 20 -4 34 -14 40 -30 10 -28 12 -373
2 -423 -4 -24 -14 -36 -35 -44 -16 -6 -28 -18 -28 -28 0 -16 12 -18 135 -18
114 0 135 2 135 15 0 9 -15 23 -34 32 -19 9 -37 25 -40 37 -3 12 -6 130 -6
264 l0 242 -100 0 c-94 0 -100 -1 -100 -20z"/>
<path d="M7250 1631 c0 -12 11 -21 32 -27 22 -6 35 -18 39 -34 11 -40 10 -381
-2 -422 -7 -27 -17 -40 -34 -44 -16 -4 -25 -13 -25 -25 0 -18 9 -19 130 -19
123 0 130 1 130 20 0 11 -6 20 -13 20 -7 0 -23 9 -35 20 -22 20 -22 26 -22
275 l0 255 -100 0 c-91 0 -100 -2 -100 -19z"/>
<path d="M3320 953 c-25 -7 -70 -74 -70 -104 0 -41 14 -69 55 -114 59 -63 69
-89 50 -126 -15 -27 -20 -30 -58 -27 -40 3 -42 5 -52 45 -14 58 -21 61 -42 19
-21 -45 -13 -63 41 -90 33 -16 44 -17 77 -7 57 17 109 75 109 120 0 40 -13 62
-77 135 -45 51 -54 86 -28 112 25 25 58 13 79 -30 l19 -38 20 32 21 33 -28 23
c-26 23 -73 30 -116 17z"/>
<path d="M4835 948 c-81 -44 -136 -140 -138 -238 -1 -59 3 -72 26 -103 38 -50
103 -74 160 -57 24 6 57 22 72 34 l28 23 27 -31 c51 -56 128 -29 210 74 18 22
35 40 40 40 4 0 1 -22 -7 -48 -15 -45 -14 -51 2 -75 23 -35 33 -34 81 7 l40
34 20 -29 c32 -48 52 -46 111 9 l21 21 12 -29 c17 -41 33 -43 81 -8 36 26 43
28 51 15 12 -23 38 -47 49 -47 5 0 27 16 49 36 l39 36 7 -26 c10 -43 29 -51
66 -27 18 11 47 37 63 57 17 20 36 43 43 50 7 7 16 23 20 35 8 21 9 21 30 -13
26 -42 28 -71 6 -92 -22 -23 -33 -20 -45 11 l-10 27 -20 -21 c-14 -14 -19 -27
-15 -41 15 -45 71 -34 130 24 29 30 30 34 10 162 -6 42 -7 43 -38 36 -17 -3
-31 -7 -32 -8 0 0 -10 -21 -22 -46 -26 -53 -89 -130 -108 -130 -22 0 -24 15
-8 71 31 108 32 119 20 119 -6 0 -22 -7 -34 -16 -21 -15 -25 -15 -41 0 -10 9
-27 16 -38 16 -31 0 -110 -75 -124 -118 -13 -43 -36 -72 -56 -72 -19 0 -17 28
13 170 42 201 42 184 4 176 -19 -3 -35 -7 -36 -9 -1 -1 -10 -36 -21 -77 -18
-74 -18 -75 -48 -72 -47 5 -93 -33 -131 -107 -19 -36 -39 -68 -46 -73 -41 -25
-50 13 -20 84 30 69 35 98 18 98 -9 0 -20 -9 -26 -19 -5 -11 -18 -27 -27 -37
-17 -17 -18 -16 -23 17 -4 26 -10 34 -25 34 -24 0 -60 -64 -45 -79 19 -19 10
-41 -30 -78 -46 -44 -83 -49 -101 -16 -10 18 -8 24 7 35 10 7 23 13 29 13 20
0 65 51 65 74 0 29 -29 56 -62 56 -39 0 -105 -70 -120 -126 -9 -33 -21 -50
-44 -65 -91 -56 -177 25 -159 150 8 59 50 147 75 161 49 26 78 0 65 -61 -7
-33 -44 -63 -67 -54 -22 9 -29 -19 -12 -44 18 -25 46 -27 85 -4 53 32 68 135
24 178 -26 27 -84 33 -120 13z m282 -194 c6 -16 -24 -65 -45 -72 -15 -5 -16
27 -2 62 11 29 37 35 47 10z m423 -28 c0 -51 -35 -111 -65 -111 -30 0 -30 37
0 100 18 39 31 55 45 55 17 0 20 -7 20 -44z m280 0 c0 -51 -35 -111 -65 -111
-17 0 -20 7 -19 40 1 49 39 115 65 115 16 0 19 -7 19 -44z"/>
<path d="M6544 952 c-20 -12 -61 -105 -68 -152 -15 -98 -66 -210 -95 -210 -5
0 -14 14 -20 31 -10 30 -10 30 -35 12 -14 -10 -26 -25 -26 -34 0 -23 33 -49
63 -49 33 0 94 69 108 124 5 23 19 68 29 101 l20 60 -5 -120 c-3 -66 -8 -130
-11 -142 -6 -20 -3 -23 22 -23 22 0 35 9 53 36 25 36 64 122 82 179 12 40 40
98 44 93 2 -2 -3 -24 -12 -48 -9 -25 -18 -82 -21 -128 -4 -76 -3 -85 18 -107
31 -33 58 -31 107 4 l41 29 12 -23 c20 -37 61 -49 101 -31 19 9 44 23 57 32
21 16 22 16 22 -10 0 -24 4 -27 27 -24 24 3 29 9 38 53 12 57 50 125 71 125
17 0 18 4 -6 -70 -36 -112 23 -149 109 -69 11 11 21 16 21 11 0 -12 47 -62 58
-62 4 0 27 16 50 36 27 23 42 30 42 21 0 -8 8 -25 19 -38 17 -22 20 -22 42 -7
13 9 33 24 44 35 19 19 20 19 35 -11 20 -41 30 -41 74 -6 l38 30 28 -30 c15
-17 32 -30 38 -30 12 0 64 40 75 58 7 10 13 5 25 -19 10 -18 22 -34 28 -36 6
-2 28 10 49 27 36 28 40 30 46 13 4 -10 14 -25 23 -32 17 -15 38 -5 84 38 l22
22 0 -31 c0 -25 4 -30 24 -30 32 0 34 4 46 91 7 51 17 80 32 96 25 26 56 30
64 8 8 -21 -14 -45 -41 -45 -27 0 -42 -28 -19 -37 12 -4 14 -14 9 -42 -5 -31
-2 -40 19 -60 25 -23 26 -23 53 -6 47 30 73 58 73 79 0 18 -2 18 -28 -7 -36
-34 -42 -34 -42 2 0 17 -5 33 -10 36 -6 3 6 21 25 39 25 24 33 39 29 52 -9 27
-34 44 -62 44 l-23 0 20 26 c52 66 48 141 -7 128 -39 -10 -64 -24 -84 -48 -25
-31 -65 -144 -73 -209 -5 -41 -13 -62 -28 -72 -11 -8 -24 -12 -29 -9 -11 7 -2
71 19 132 8 24 12 46 10 49 -3 2 -20 0 -38 -4 -27 -8 -35 -17 -50 -58 -10 -28
-18 -60 -18 -72 -1 -21 -34 -53 -55 -53 -14 0 0 115 28 224 32 120 32 126 3
126 -39 0 -55 -22 -70 -95 -14 -69 -14 -70 -44 -67 -46 5 -97 -34 -123 -93
-35 -78 -36 -80 -60 -83 -22 -4 -22 -1 -16 40 4 23 14 62 23 86 9 23 13 45 11
48 -3 3 -21 1 -39 -4 -31 -8 -35 -14 -56 -83 -20 -66 -42 -99 -65 -99 -13 0
-9 83 7 136 18 63 46 206 41 212 -3 2 -18 1 -34 -3 -30 -6 -33 -11 -61 -120
-10 -38 -12 -40 -51 -40 -33 -1 -46 -8 -74 -37 -18 -19 -41 -56 -51 -81 -16
-43 -59 -86 -72 -73 -3 3 4 34 16 69 24 72 26 98 9 115 -20 20 -41 14 -82 -24
l-39 -36 6 36 c6 39 2 41 -37 26 -28 -10 -51 -53 -61 -112 -6 -40 -47 -78 -82
-78 -22 0 -64 41 -48 47 38 14 92 52 104 74 13 24 13 29 -2 53 -38 58 -131 10
-162 -83 -18 -55 -45 -84 -72 -79 -29 6 -24 149 11 256 14 46 26 85 26 88 0 2
-14 4 -31 4 -53 0 -122 -103 -169 -252 -6 -21 -13 -38 -14 -38 -2 0 -1 65 2
145 l5 145 -24 0 c-13 0 -29 -4 -35 -8z m1746 -51 c0 -10 -7 -24 -15 -31 -8
-7 -15 -17 -15 -22 0 -6 -11 -23 -25 -40 -30 -36 -32 -19 -4 41 31 69 59 94
59 52z m-1332 -155 c5 -22 -24 -66 -43 -66 -20 0 -19 35 1 66 18 27 37 27 42
0z m490 -16 c3 -45 -36 -115 -63 -115 -17 0 -20 6 -18 43 1 23 12 59 24 78 27
45 53 42 57 -6z m410 12 c6 -38 -27 -120 -50 -128 -23 -7 -41 12 -33 34 3 8 5
23 5 35 0 12 9 37 20 55 23 38 53 40 58 4z"/>
<path d="M3521 882 c-14 -30 -14 -30 9 -42 17 -9 25 -6 45 14 33 33 32 43 -9
48 -29 3 -37 0 -45 -20z"/>
<path d="M7621 882 c-11 -22 -10 -28 4 -38 22 -17 55 -6 67 22 13 28 12 29
-28 37 -27 5 -33 2 -43 -21z"/>
<path d="M8031 882 c-13 -27 -9 -38 18 -45 27 -7 61 19 61 46 0 18 -6 22 -34
23 -27 0 -37 -5 -45 -24z"/>
<path d="M3908 888 c-21 -5 -39 -17 -42 -26 -2 -10 -7 -29 -10 -44 -4 -16 -12
-28 -20 -28 -10 0 -14 -20 -16 -72 -4 -129 -2 -142 20 -160 24 -20 41 -15 90
23 l35 27 18 -25 c39 -51 93 -49 150 5 l27 26 0 -32 c0 -33 7 -37 46 -26 18 5
22 15 26 58 4 54 39 116 65 116 16 0 16 -14 3 -60 -6 -19 -15 -54 -19 -77 -9
-46 -4 -50 45 -37 21 6 44 58 44 101 0 24 36 73 54 73 11 0 11 -12 -1 -62 -25
-108 4 -147 74 -101 40 26 69 60 59 71 -3 3 -17 -5 -30 -17 -35 -33 -48 -19
-30 33 8 24 14 66 12 92 -4 65 -30 70 -87 19 l-40 -36 -3 33 c-4 46 -30 47
-83 3 l-44 -36 11 31 c13 38 10 42 -31 34 -29 -6 -33 -12 -52 -78 -22 -75 -56
-116 -95 -116 -22 0 -44 18 -44 36 0 7 19 23 42 36 23 13 49 35 57 49 13 24
13 29 -2 53 -22 32 -54 34 -100 4 -33 -22 -77 -97 -77 -132 0 -17 -29 -36 -54
-36 -19 0 -21 32 -5 95 8 33 16 45 33 47 26 4 36 48 11 48 -11 0 -15 5 -12 14
8 21 20 86 16 85 -2 -1 -21 -6 -41 -11z m182 -145 c0 -26 -25 -63 -42 -63 -11
0 -10 47 2 71 16 28 40 24 40 -8z"/>
<path d="M3533 793 c-12 -2 -26 -10 -31 -16 -13 -16 -32 -109 -32 -155 0 -35
22 -82 38 -82 15 0 66 46 117 107 52 61 53 62 67 40 26 -40 28 -67 6 -89 l-20
-20 -23 28 -22 28 -18 -27 c-17 -26 -17 -28 0 -47 25 -28 46 -25 91 11 65 52
78 92 48 155 -9 19 -14 44 -11 55 5 19 3 21 -26 15 -18 -4 -33 -10 -35 -15 -9
-26 -86 -132 -109 -151 l-28 -22 -3 27 c-2 15 3 48 11 74 33 102 34 95 -20 84z"/>
</g>
</svg>
